<svg t="1761393867231" class="icon" viewBox="0 0 1024 1024" version="1.1" xmlns="http://www.w3.org/2000/svg" p-id="2298" data-darkreader-inline-fill="" data-spm-anchor-id="a313x.search_index.0.i0.c6e73a818mBpbX" width="200" height="200"><path d="M952.016 910.067l-101.243-84.675c-11.505-9.664-28.992-8.284-39.116 3.681-9.664 11.505-8.284 28.993 3.681 39.117l101.243 84.676c5.062 4.141 11.505 6.442 17.487 6.442 7.824 0 15.647-3.221 21.17-10.124 10.124-11.965 8.743-29.452-3.222-39.117zM686.944 541.452c-91.118 0-165.21 74.091-165.21 165.21 0 91.118 74.092 165.21 165.21 165.21 91.119 0 165.21-74.092 165.21-165.21 0-91.119-74.091-165.21-165.21-165.21z m0 275.196c-60.746 0-109.986-49.24-109.986-109.986s49.24-109.987 109.986-109.987 109.987 49.24 109.987 109.987c0 60.745-49.241 109.986-109.987 109.986z" fill="#f4ea2a" p-id="2299" data-darkreader-inline-fill="" style="--darkreader-inline-fill: var(--darkreader-background-f4ea2a, #8a8407);"></path><path d="M859.977 718.627a27.617 27.617 0 0 0 23.93 13.805c4.602 0 9.204-1.38 13.806-3.681l47.86-27.612a27.617 27.617 0 0 0 13.806-23.93c0-10.124-5.522-18.868-13.806-23.93l-47.86-27.151c-13.346-7.364-29.913-2.762-37.736 10.584-7.363 13.346-2.761 29.913 10.585 37.736l5.982 3.221-5.982 3.682c-13.806 7.363-18.408 23.93-10.585 37.276zM545.664 864.508l-37.275 21.63-363.094-208.929 88.358-50.621c0.92-0.46 1.38-0.92 2.3-1.38L458.228 750.38c4.142 2.761 8.744 3.682 13.346 3.682 9.664 0 18.868-5.063 23.93-14.266 7.363-13.346 2.761-29.913-10.584-37.736L145.295 510.619l100.783-57.064 248.965 142.66c4.142 2.3 9.204 3.681 13.806 3.681 4.602 0 9.204-1.38 13.806-3.681l258.629-146.802 97.101 60.285-48.78 27.612c-13.346 7.363-17.948 24.39-10.585 37.736a27.617 27.617 0 0 0 23.93 13.806c4.602 0 9.204-1.38 13.806-3.682l89.278-50.621c8.283-4.602 13.805-13.806 13.805-23.47s-4.602-18.868-12.885-23.93l-110.907-69.03 109.526-62.126a27.617 27.617 0 0 0 13.806-23.93c0-9.664-5.522-19.328-13.806-23.93L522.194 67.451c-8.283-4.601-18.868-4.601-27.611 0L75.806 308.133A27.617 27.617 0 0 0 62 332.063c0 9.664 5.522 18.868 13.806 23.93l114.588 65.808L75.806 487.15A27.617 27.617 0 0 0 62 511.079c0 10.124 5.522 18.868 14.266 23.93l104.004 58.445-104.464 59.825A27.617 27.617 0 0 0 62 677.209a27.617 27.617 0 0 0 13.806 23.93l418.777 240.682c4.142 2.3 9.204 3.681 13.806 3.681 4.602 0 9.664-1.38 13.805-3.681l51.082-29.453c13.346-7.823 17.948-24.39 10.124-37.735-7.823-13.346-24.39-17.948-37.736-10.125zM144.835 332.063l363.554-208.928 367.235 208.928-367.235 208.468-363.554-208.468z" fill="#f4ea2a" p-id="2300" data-darkreader-inline-fill="" style="--darkreader-inline-fill: var(--darkreader-background-f4ea2a, #8a8407);"></path></svg>